<?xml version="1.0" standalone="no"?>
<!DOCTYPE svg PUBLIC "-//W3C//DTD SVG 20010904//EN"
 "http://www.w3.org/TR/2001/REC-SVG-20010904/DTD/svg10.dtd">
<svg version="1.0" xmlns="http://www.w3.org/2000/svg"
 width="3301.000000pt" height="3301.000000pt" viewBox="0 0 3301.000000 3301.000000"
 preserveAspectRatio="xMidYMid meet">
<metadata>
Created by potrace 1.11, written by Peter Selinger 2001-2013
</metadata>
<g transform="translate(0.000000,3301.000000) scale(0.100000,-0.100000)"
fill="#000000" stroke="none">
<path d="M15040 33007 c-3 -3 -30 -7 -60 -11 -30 -3 -67 -8 -82 -11 -16 -3
-38 -7 -50 -9 -13 -2 -52 -12 -88 -21 -487 -127 -904 -469 -1120 -920 -69
-143 -127 -314 -144 -425 -3 -19 -8 -46 -10 -59 -11 -52 -18 -136 -20 -244
-15 -753 452 -1423 1169 -1675 52 -19 169 -51 205 -57 19 -3 42 -8 50 -10 8
-2 42 -7 75 -11 33 -3 69 -8 80 -10 30 -7 275 -6 320 1 22 3 56 8 75 11 243
33 486 122 690 252 134 85 311 240 405 353 176 212 305 479 365 754 45 209 47
482 5 695 -3 14 -7 34 -9 45 -16 87 -70 240 -125 360 -168 363 -493 683 -853
842 -81 35 -224 87 -269 98 -179 40 -225 46 -409 51 -108 3 -198 3 -200 1z"/>
<path d="M16790 27589 c-19 -4 -51 -10 -71 -13 -46 -7 -169 -51 -234 -84 -87
-43 -167 -103 -251 -187 -213 -212 -315 -502 -283 -805 65 -608 670 -1014
1258 -843 359 103 627 398 701 768 14 70 18 245 7 327 -36 271 -216 549 -448
693 -89 55 -247 120 -318 131 -20 3 -54 9 -75 14 -47 10 -236 10 -286 -1z"/>
<path d="M12649 27099 c-39 -39 -8 -87 61 -94 216 -21 338 -154 367 -399 9
-81 9 -5586 0 -5699 -5 -48 -10 -93 -12 -100 -2 -7 -6 -29 -9 -49 -36 -246
-149 -535 -293 -749 -195 -291 -418 -474 -768 -635 -49 -22 -112 -51 -140 -64
-294 -135 -789 -395 -1024 -539 -45 -28 -84 -51 -86 -51 -14 0 -465 -297 -635
-418 -101 -72 -362 -269 -411 -310 -210 -174 -351 -292 -379 -318 -19 -18 -46
-42 -60 -54 -176 -152 -588 -566 -781 -785 -24 -27 -46 -52 -49 -55 -3 -3 -32
-36 -65 -75 -33 -38 -63 -72 -66 -75 -17 -15 -310 -385 -395 -500 -726 -978
-1270 -2074 -1604 -3230 -33 -114 -128 -479 -145 -560 -27 -122 -97 -486 -101
-520 -3 -25 -7 -52 -9 -60 -3 -8 -7 -33 -10 -55 -11 -75 -15 -100 -20 -125 -2
-14 -7 -43 -10 -65 -2 -22 -7 -56 -10 -75 -5 -37 -11 -93 -20 -172 -3 -27 -8
-69 -11 -95 -6 -52 -9 -89 -19 -203 -3 -41 -8 -97 -10 -125 -15 -172 -19 -350
-20 -735 0 -440 6 -613 29 -855 4 -33 8 -82 10 -110 5 -63 15 -149 26 -245 5
-41 12 -97 15 -125 3 -27 7 -61 10 -75 2 -14 7 -45 10 -70 3 -25 8 -56 10 -70
3 -14 7 -40 10 -57 21 -133 35 -212 51 -293 9 -41 17 -87 19 -102 2 -15 6 -35
9 -45 3 -10 8 -32 11 -50 3 -18 19 -92 36 -165 17 -73 32 -140 34 -148 2 -8
19 -76 39 -150 137 -526 305 -1008 532 -1528 62 -143 291 -610 351 -717 146
-258 200 -351 301 -515 114 -184 267 -413 391 -585 74 -104 242 -328 250 -335
4 -3 33 -39 66 -80 59 -74 242 -295 267 -321 7 -8 31 -34 52 -59 164 -189 533
-565 736 -752 234 -214 544 -471 790 -654 140 -104 158 -117 350 -250 132 -92
513 -334 524 -334 2 0 43 -24 92 -53 49 -30 125 -73 169 -97 44 -24 107 -59
140 -77 127 -69 507 -254 665 -323 91 -40 183 -80 205 -90 221 -98 692 -265
1030 -364 338 -100 542 -151 860 -215 202 -41 297 -58 420 -76 22 -4 81 -13
130 -20 50 -8 110 -17 135 -20 25 -2 61 -7 80 -10 19 -2 60 -7 90 -10 30 -3
71 -8 90 -10 19 -2 64 -7 100 -10 36 -3 88 -8 115 -11 205 -20 453 -29 835
-29 335 0 666 10 720 20 10 2 58 6 106 10 110 7 176 13 234 20 25 3 68 8 95
11 28 3 61 7 75 9 14 2 50 6 80 10 30 4 66 8 80 10 14 2 45 7 70 10 109 15
303 47 395 66 113 22 151 29 180 34 17 2 230 49 278 61 9 2 26 6 37 8 11 3 84
21 162 41 1461 372 2810 1061 3963 2024 50 42 95 80 101 86 6 5 33 29 60 51
27 23 61 52 75 65 14 13 68 62 120 109 213 193 583 572 790 810 41 47 76 87
79 90 4 3 59 70 124 150 65 80 126 154 135 165 201 246 617 856 772 1132 12
21 48 84 80 140 143 247 327 617 459 918 259 595 458 1207 600 1850 45 204 52
237 64 305 3 14 9 50 15 80 6 30 13 69 15 85 3 17 12 71 20 120 16 98 23 144
31 220 3 28 8 57 10 65 2 8 7 38 10 65 3 28 7 64 9 80 2 17 7 59 10 95 4 36 9
81 11 100 3 19 7 71 10 115 4 44 8 100 10 125 24 282 35 880 21 1160 -12 237
-31 510 -41 580 -2 19 -7 60 -10 90 -3 30 -8 71 -10 90 -3 19 -7 58 -10 85 -4
28 -8 59 -9 70 -2 11 -6 45 -10 75 -4 30 -10 69 -12 85 -3 17 -7 43 -9 58 -2
16 -6 40 -9 55 -3 15 -8 43 -11 62 -8 50 -44 251 -49 275 -6 29 -37 176 -42
200 -2 11 -6 31 -9 45 -11 60 -110 447 -146 575 -150 520 -336 1017 -564 1510
-45 98 -234 476 -244 490 -5 6 -26 44 -48 85 -193 360 -501 843 -735 1155 -61
81 -253 331 -258 335 -3 3 -37 43 -75 90 -39 47 -79 96 -90 109 -214 260 -609
667 -921 951 -545 495 -1221 982 -1849 1330 -196 108 -585 302 -855 425 -118
54 -222 104 -231 112 -8 7 -19 13 -23 13 -4 0 -47 25 -94 56 -303 198 -520
463 -665 814 -30 73 -84 251 -93 310 -2 14 -6 34 -9 46 -3 12 -7 39 -10 60 -4
21 -8 46 -10 54 -15 55 -17 492 -19 2969 -1 2930 -2 2850 44 2974 55 148 176
240 331 252 70 6 100 54 60 94 -21 21 -70 20 -161 -6 -183 -51 -314 -187 -367
-380 -4 -15 -9 -1322 -10 -2903 -2 -2963 -3 -2869 32 -3110 10 -64 66 -264
102 -360 113 -303 304 -577 544 -783 84 -72 255 -179 394 -246 149 -73 160
-78 418 -195 219 -100 576 -287 737 -386 8 -5 80 -49 160 -97 134 -81 569
-367 615 -405 11 -9 85 -65 165 -124 270 -200 540 -426 834 -697 147 -136 443
-438 576 -587 47 -52 87 -97 90 -100 3 -3 46 -52 96 -110 839 -980 1497 -2138
1897 -3340 52 -156 136 -428 142 -461 2 -12 9 -36 14 -53 33 -100 145 -580
176 -751 8 -44 16 -91 19 -105 13 -67 42 -246 51 -310 3 -25 8 -56 10 -70 2
-14 7 -45 10 -70 4 -25 8 -56 10 -70 2 -14 7 -54 10 -90 4 -36 8 -72 10 -80 2
-8 6 -53 10 -100 4 -47 8 -92 10 -100 2 -8 6 -62 10 -120 3 -58 8 -124 10
-148 23 -276 23 -1013 0 -1283 -2 -30 -7 -92 -10 -139 -3 -47 -8 -101 -10
-120 -2 -19 -7 -66 -10 -105 -3 -38 -8 -83 -10 -100 -2 -16 -7 -51 -10 -77 -3
-27 -7 -69 -10 -95 -3 -27 -8 -59 -10 -73 -3 -14 -7 -47 -11 -75 -3 -27 -8
-59 -10 -70 -2 -11 -7 -40 -10 -65 -3 -25 -7 -52 -9 -60 -2 -8 -7 -35 -10 -60
-4 -25 -13 -74 -20 -110 -7 -36 -16 -85 -20 -110 -3 -25 -12 -70 -20 -100 -7
-30 -16 -72 -19 -94 -4 -21 -8 -41 -10 -45 -2 -3 -7 -22 -10 -41 -5 -28 -95
-396 -111 -450 -2 -8 -11 -42 -20 -75 -22 -83 -67 -231 -127 -415 -59 -182
-89 -264 -188 -525 -65 -169 -215 -507 -320 -722 -292 -596 -611 -1116 -1005
-1641 -69 -91 -200 -259 -256 -327 -51 -61 -275 -322 -288 -336 -9 -9 -54 -58
-101 -110 -96 -106 -402 -414 -530 -534 -112 -105 -370 -330 -470 -411 -19
-16 -37 -31 -40 -35 -12 -14 -358 -276 -490 -370 -138 -99 -336 -232 -465
-314 -33 -20 -71 -45 -85 -54 -14 -10 -67 -42 -118 -72 -51 -30 -105 -61 -120
-70 -307 -180 -751 -402 -1087 -544 -88 -37 -173 -73 -190 -80 -16 -7 -50 -21
-75 -30 -25 -9 -54 -21 -65 -26 -114 -50 -620 -220 -844 -283 -358 -102 -822
-209 -1036 -240 -22 -4 -65 -11 -95 -16 -30 -5 -73 -12 -95 -15 -22 -4 -80
-12 -130 -20 -49 -7 -115 -16 -145 -20 -56 -6 -94 -10 -165 -19 -68 -8 -153
-16 -335 -31 -150 -12 -188 -14 -385 -21 -311 -10 -805 -5 -975 11 -19 2 -78
6 -130 10 -52 3 -111 8 -130 10 -19 2 -71 7 -115 10 -44 4 -89 9 -100 11 -10
2 -49 6 -85 10 -36 3 -74 8 -85 10 -11 2 -42 6 -70 9 -27 3 -61 8 -75 10 -33
5 -144 22 -195 30 -23 3 -52 8 -65 10 -14 3 -65 12 -115 21 -93 16 -279 53
-400 80 -38 8 -79 17 -90 20 -51 10 -315 77 -398 100 -51 14 -99 27 -107 29
-132 31 -643 205 -905 308 -137 54 -494 205 -531 225 -11 6 -111 56 -224 111
-269 131 -372 186 -650 349 -167 98 -428 263 -481 304 -20 15 -40 28 -43 28
-7 0 -66 39 -76 50 -3 3 -43 32 -90 65 -164 113 -648 486 -680 524 -3 3 -34
31 -70 61 -123 104 -385 347 -525 487 -171 170 -249 252 -449 473 -54 60 -248
290 -332 395 -266 330 -644 881 -824 1200 -9 17 -46 82 -82 145 -102 180 -318
597 -318 614 0 2 -22 50 -49 107 -145 308 -294 693 -422 1086 -55 172 -159
531 -174 603 -2 8 -17 71 -34 140 -25 105 -58 250 -77 344 -8 40 -62 341 -68
381 -4 22 -13 85 -22 140 -8 55 -16 111 -19 125 -2 14 -6 50 -10 80 -8 72 -14
121 -20 168 -2 20 -7 66 -10 102 -4 36 -8 81 -10 100 -3 19 -7 73 -10 120 -3
47 -7 114 -10 150 -28 389 -23 1060 10 1410 3 30 7 84 10 120 4 36 7 79 9 95
2 17 7 62 10 100 7 67 9 84 20 165 3 19 8 58 11 85 4 28 8 57 10 65 3 8 7 38
10 66 3 28 7 59 9 70 2 10 7 39 11 64 4 25 9 54 11 65 2 10 6 35 9 55 3 20 8
47 11 60 3 14 7 36 9 50 5 31 58 285 84 402 101 450 293 1052 486 1523 157
383 370 822 569 1170 338 591 733 1146 1170 1645 162 185 179 203 446 470 301
302 382 377 665 615 115 97 108 91 255 206 272 212 723 528 840 589 14 7 27
16 30 19 22 28 608 357 805 451 144 70 275 130 281 130 13 0 391 194 459 235
335 204 556 441 710 760 74 152 145 363 161 480 3 17 9 53 14 80 5 28 12 76
15 108 4 32 8 68 11 80 2 12 4 1307 4 2877 1 2493 -1 2864 -14 2920 -52 222
-234 380 -465 403 -33 4 -48 0 -62 -14z"/>
<path d="M14997 23734 c-1 -1 -22 -5 -47 -9 -281 -41 -520 -278 -575 -570 -14
-74 -4 -234 19 -310 2 -5 7 -23 11 -40 9 -34 54 -120 91 -174 63 -93 203 -204
309 -245 107 -41 280 -60 380 -41 336 63 580 355 579 690 -2 347 -249 637
-589 691 -40 6 -173 12 -178 8z"/>
<path d="M15540 18463 c-1 -43 -3 -166 -5 -273 -2 -107 -6 -384 -10 -614 -3
-230 -7 -422 -10 -425 -2 -4 0 -13 5 -21 9 -15 32 -16 455 -20 214 -2 289 11
409 72 286 144 442 458 382 770 -45 235 -215 441 -434 527 -113 45 -158 50
-504 56 l-288 5 0 -77z m605 -18 c142 -18 299 -99 388 -200 47 -53 109 -160
133 -231 23 -67 27 -96 27 -189 1 -117 -14 -185 -58 -281 -75 -160 -237 -291
-420 -340 -57 -15 -197 -18 -535 -11 l-75 2 2 295 c1 228 8 751 13 947 0 21 0
21 238 18 130 -2 260 -7 287 -10z"/>
<path d="M14953 18463 c-29 -4 -32 -7 -28 -31 3 -15 9 -70 16 -122 6 -52 12
-106 14 -120 6 -36 75 -586 81 -640 2 -25 6 -56 9 -70 2 -14 6 -50 10 -80 3
-30 8 -66 10 -80 2 -14 7 -50 10 -80 4 -30 10 -84 15 -120 6 -36 10 -68 10
-72 0 -4 12 -3 28 1 15 4 32 6 39 4 8 -3 11 4 8 19 -2 13 -6 48 -9 78 -3 30
-8 64 -10 75 -2 11 -7 47 -10 80 -4 33 -9 71 -11 85 -3 23 -8 62 -21 170 -3
25 -7 56 -9 70 -2 14 -9 66 -15 115 -20 169 -21 180 -25 205 -5 34 -23 175
-30 230 -3 25 -12 98 -20 163 -8 65 -15 120 -15 123 0 2 -3 3 -7 2 -5 0 -22
-3 -40 -5z"/>
<path d="M17668 18335 c-2 -2 -24 -6 -49 -9 -206 -28 -411 -180 -512 -381 -51
-101 -69 -176 -73 -292 -8 -208 63 -389 207 -531 286 -283 757 -273 1026 23
92 100 150 214 182 357 l8 36 -86 21 c-123 30 -622 141 -631 141 -7 0 -22 -71
-16 -77 1 -1 115 -28 252 -58 137 -31 279 -63 315 -72 l67 -15 -10 -37 c-20
-72 -82 -178 -145 -247 -68 -75 -187 -146 -298 -179 -80 -24 -237 -25 -325 -1
-170 45 -318 165 -401 325 -48 92 -66 168 -68 283 -5 280 176 525 454 613 71
23 235 28 315 9 106 -25 222 -88 299 -163 37 -36 76 -80 86 -98 18 -31 18 -31
52 -15 18 9 33 19 33 22 0 13 -50 82 -93 127 -95 101 -244 182 -382 208 -41 8
-201 15 -207 10z"/>
<path d="M13868 18256 c-136 -34 -249 -64 -252 -67 -3 -3 26 -133 65 -290 114
-467 188 -765 228 -929 l37 -155 29 2 c16 1 32 6 37 11 6 6 -3 62 -21 136 -17
69 -45 183 -62 254 -16 70 -32 134 -35 143 -4 13 27 23 170 58 l174 43 95 -98
c52 -55 118 -124 147 -154 182 -193 212 -220 239 -213 64 15 65 13 -47 129
-59 61 -160 166 -224 234 l-118 123 38 20 c131 69 209 169 236 300 55 264
-135 505 -404 512 -75 2 -113 -4 -332 -59z m465 -51 c222 -109 268 -396 90
-567 -59 -57 -121 -81 -338 -133 -110 -26 -203 -49 -207 -51 -6 -4 -168 639
-168 668 0 10 56 28 208 66 248 62 317 65 415 17z"/>
<path d="M18900 17737 c-63 -144 -126 -289 -141 -322 -15 -33 -39 -89 -54
-125 -15 -36 -36 -85 -47 -110 -11 -25 -28 -63 -38 -85 -170 -388 -180 -415
-150 -415 5 0 39 -13 74 -30 36 -16 94 -41 128 -56 35 -14 82 -35 106 -45 86
-39 129 -57 202 -89 80 -34 96 -41 204 -89 38 -17 74 -31 81 -31 7 0 18 14 26
31 11 28 10 33 -6 45 -10 8 -26 14 -35 14 -9 0 -20 4 -26 8 -5 5 -34 19 -64
32 -30 12 -77 33 -105 45 -114 51 -145 65 -149 65 -3 0 -37 15 -78 33 -40 19
-119 53 -175 77 -111 47 -108 41 -73 115 21 45 130 296 130 300 0 3 15 37 33
77 19 40 37 81 40 90 8 23 10 22 372 -137 171 -75 317 -139 325 -141 11 -4 21
7 33 30 l17 36 -33 14 c-132 56 -349 151 -382 166 -22 10 -83 37 -135 60 -147
63 -150 64 -150 72 0 5 21 54 46 110 25 57 46 108 48 113 2 11 19 49 72 163
19 40 34 79 34 86 0 7 6 20 13 30 12 17 19 15 118 -27 57 -25 134 -59 172 -76
37 -17 69 -31 72 -31 4 0 336 -145 376 -164 25 -13 27 -12 43 22 9 19 16 36
14 37 -11 9 -461 208 -794 351 l-30 13 -114 -262z"/>
<path d="M12895 17927 c-39 -10 -694 -292 -706 -305 -6 -6 549 -1283 563
-1297 3 -3 61 19 129 49 68 30 198 87 289 126 342 150 354 157 416 241 145
198 79 477 -139 584 -70 34 -102 42 -161 44 -27 1 -28 2 -13 24 51 78 63 214
28 306 -62 164 -243 266 -406 228z m132 -82 c173 -32 266 -231 184 -394 -41
-80 -75 -101 -390 -240 -164 -72 -303 -131 -309 -131 -6 0 -14 10 -18 23 -4
12 -17 45 -29 72 -132 290 -175 398 -164 411 6 8 16 14 21 14 5 0 132 53 281
119 150 65 285 123 301 128 30 9 66 9 123 -2z m376 -585 c98 -47 171 -153 180
-263 7 -84 -37 -195 -101 -254 -24 -22 -97 -60 -202 -106 -19 -8 -93 -41 -165
-72 -138 -61 -182 -80 -257 -114 -61 -27 -66 -27 -80 7 -10 25 -42 96 -74 167
-7 17 -47 108 -88 203 l-75 173 42 18 c23 10 112 49 197 86 85 37 183 80 218
96 35 16 65 29 67 29 3 0 28 11 57 24 74 33 84 35 163 32 47 -2 86 -10 118
-26z"/>
<path d="M21222 16619 c-135 -25 -249 -125 -291 -255 -14 -44 -19 -151 -10
-199 13 -60 54 -130 116 -196 96 -101 125 -186 103 -292 -14 -71 -57 -138
-117 -181 -260 -189 -593 115 -427 390 38 63 38 78 -1 96 -29 13 -37 5 -75
-67 -49 -95 -58 -205 -25 -304 16 -49 70 -131 104 -159 82 -67 172 -96 275
-90 264 16 427 295 314 535 -12 25 -53 79 -92 122 -85 93 -106 141 -103 238 8
215 227 350 422 257 166 -78 220 -286 115 -438 l-29 -43 31 -23 31 -23 19 24
c84 103 104 269 49 393 -67 154 -242 245 -409 215z"/>
<path d="M10495 16399 c-191 -43 -320 -241 -284 -435 33 -177 199 -309 379
-303 91 3 149 25 228 84 79 59 103 72 160 84 39 8 62 7 127 -4 60 -10 135 -61
175 -120 78 -113 68 -260 -26 -364 -110 -122 -295 -133 -416 -23 l-39 35 -27
-27 -27 -27 48 -44 c136 -125 366 -120 500 10 162 158 154 420 -18 561 -77 62
-128 79 -240 79 -117 -1 -145 -11 -248 -87 -86 -64 -149 -87 -224 -82 -90 6
-169 52 -232 136 -50 67 -58 193 -18 281 82 179 300 230 456 107 l50 -40 28
24 28 24 -20 22 c-30 34 -100 79 -147 96 -53 18 -160 25 -213 13z"/>
<path d="M21870 15733 c-134 -25 -319 -134 -394 -231 -11 -15 -28 -36 -38 -46
-29 -32 -94 -167 -113 -236 -19 -67 -26 -253 -12 -315 36 -165 95 -274 207
-383 116 -114 249 -178 413 -199 45 -6 47 -5 47 20 0 14 3 32 6 40 4 11 -8 16
-51 22 -198 24 -381 149 -478 325 -53 98 -71 168 -71 285 -1 143 11 203 62
305 21 43 94 142 130 176 48 45 135 100 202 127 295 116 618 7 782 -265 56
-94 85 -193 87 -303 1 -49 3 -90 4 -91 1 -1 18 -4 37 -6 l35 -3 1 90 c5 372
-303 688 -681 699 -58 2 -132 -3 -175 -11z"/>
<path d="M9721 15693 c-20 -25 -21 -27 -4 -42 10 -9 97 -86 193 -170 96 -85
177 -157 180 -160 3 -4 39 -36 80 -71 41 -36 82 -72 90 -80 8 -9 49 -45 90
-80 41 -36 97 -86 125 -111 27 -26 104 -94 170 -153 l120 -105 26 27 26 27
-31 30 c-17 17 -69 64 -115 105 -46 41 -89 80 -95 85 -6 6 -49 44 -96 85 -47
41 -92 81 -101 90 -8 8 -44 40 -79 70 -35 30 -86 76 -114 101 -28 25 -98 87
-156 139 -58 51 -138 122 -179 159 -106 95 -100 93 -130 54z"/>
<path d="M9434 15175 c-149 -32 -212 -87 -376 -329 -7 -10 -20 -28 -29 -40
-62 -82 -138 -201 -131 -207 6 -7 235 -170 292 -209 35 -23 133 -92 245 -171
66 -47 156 -110 200 -141 44 -30 152 -106 240 -168 88 -62 165 -114 170 -117
6 -2 21 10 33 26 l22 30 -48 34 c-26 18 -129 91 -230 161 -101 71 -182 131
-180 135 2 4 48 71 102 149 l99 141 46 -4 c25 -2 78 -7 116 -10 39 -3 88 -8
110 -10 22 -2 69 -7 105 -10 36 -3 88 -8 115 -11 144 -15 153 -14 181 18 14
17 21 35 17 39 -5 5 -37 11 -73 14 -36 3 -90 7 -120 10 -30 2 -84 7 -120 10
-36 3 -85 8 -110 10 -95 10 -186 18 -198 18 -14 0 -13 4 13 77 9 24 18 74 21
110 20 281 -236 503 -512 445z m231 -105 c102 -49 169 -132 195 -242 29 -126
5 -190 -156 -421 -107 -154 -132 -183 -146 -176 -9 5 -63 42 -119 82 -56 39
-124 88 -153 107 -70 49 -178 124 -237 167 -29 21 -46 40 -42 46 35 61 244
350 272 376 105 98 257 122 386 61z"/>
<path d="M23109 14682 c-23 -17 -238 -155 -276 -177 -10 -5 -43 -26 -73 -46
-30 -20 -226 -145 -435 -278 -209 -133 -381 -247 -382 -254 -2 -7 6 -23 16
-36 l19 -25 233 149 c129 81 263 167 299 190 36 23 117 75 180 115 122 77 202
129 260 165 47 31 213 139 223 146 8 6 -23 69 -34 69 -4 0 -17 -8 -30 -18z"/>
<path d="M8613 14149 c-12 -32 -10 -49 7 -49 5 0 61 -25 125 -55 65 -30 118
-55 120 -55 2 0 45 -20 97 -44 51 -24 123 -58 161 -74 37 -17 67 -33 67 -35 0
-5 -33 -80 -78 -177 -197 -427 -336 -729 -343 -747 -5 -13 -12 -23 -15 -23 -8
0 -131 55 -303 136 -62 30 -114 54 -116 54 -2 0 -42 18 -90 41 -48 22 -88 39
-89 37 -8 -11 -28 -69 -25 -71 2 -2 47 -23 99 -46 52 -24 127 -58 165 -76 39
-18 93 -43 120 -55 28 -13 86 -39 130 -60 299 -140 763 -350 772 -350 6 0 13
8 16 18 2 9 8 24 11 33 6 13 -17 27 -116 72 -68 30 -166 75 -218 100 -52 24
-133 61 -180 82 -47 22 -89 42 -93 45 -4 4 8 40 26 81 19 41 46 99 60 129 53
116 145 317 170 370 14 30 44 96 66 145 92 199 105 225 113 225 7 0 38 -14
213 -95 39 -18 97 -45 130 -60 33 -15 107 -50 164 -76 57 -27 107 -49 111 -49
4 0 10 8 13 18 2 9 8 25 12 35 8 19 26 9 -332 173 -32 15 -92 42 -133 61 -102
47 -658 303 -743 342 -37 17 -71 31 -75 31 -4 0 -13 -14 -19 -31z"/>
<path d="M23315 14115 c-71 -35 -260 -128 -420 -205 -159 -78 -387 -189 -506
-247 l-216 -105 48 -97 c26 -53 115 -234 198 -403 82 -170 154 -308 160 -308
5 0 22 5 36 12 19 8 24 16 19 31 -5 16 -216 454 -323 670 l-29 57 21 12 c33
18 244 121 343 169 49 23 111 52 137 66 l48 24 110 -228 c203 -418 222 -458
224 -461 4 -6 76 29 72 36 -4 8 -53 111 -211 435 -64 131 -116 243 -116 248 0
5 51 34 113 63 61 30 177 86 255 125 l144 71 45 -93 c76 -156 203 -416 259
-534 30 -62 55 -113 57 -113 18 0 67 24 67 34 0 6 -21 54 -46 106 -78 160
-263 540 -302 622 -20 43 -41 77 -47 77 -5 0 -68 -29 -140 -64z"/>
<path d="M24008 12934 c-3 -2 -14 -6 -24 -8 -11 -2 -68 -18 -129 -36 -60 -17
-117 -33 -126 -35 -9 -2 -88 -24 -175 -48 -88 -25 -251 -71 -364 -102 -113
-32 -275 -77 -360 -101 -85 -24 -161 -44 -167 -44 -7 0 -13 -8 -13 -17 0 -33
12 -63 24 -63 7 0 286 77 621 170 334 94 612 169 616 168 4 -2 -17 -37 -47
-78 -106 -145 -670 -926 -729 -1010 -33 -47 -63 -89 -68 -95 -38 -45 -117
-161 -117 -170 0 -21 22 -75 30 -75 10 0 1196 330 1318 367 38 12 51 20 47 30
-3 8 -8 25 -11 38 -7 27 38 37 -429 -95 -198 -56 -382 -108 -410 -115 -27 -8
-131 -36 -230 -64 -99 -28 -183 -51 -187 -51 -6 0 371 530 409 575 5 6 80 109
167 230 88 121 198 273 245 338 149 205 151 208 141 228 -6 10 -10 27 -10 38
0 20 -13 35 -22 25z"/>
<path d="M8101 12524 c-170 -128 -280 -344 -284 -559 -2 -148 56 -323 147
-440 54 -70 60 -76 121 -124 92 -74 217 -132 313 -146 299 -45 564 66 722 301
148 222 162 502 38 736 l-30 57 -32 -16 c-17 -8 -33 -17 -34 -19 -2 -1 12 -35
32 -76 137 -280 64 -602 -178 -785 -109 -82 -209 -119 -344 -129 -252 -19
-492 119 -609 349 -122 242 -72 539 124 733 36 36 78 71 94 80 l29 14 -17 35
c-9 19 -20 35 -24 35 -4 0 -34 -21 -68 -46z"/>
<path d="M23678 11305 c-2 -2 -19 -5 -38 -8 -103 -14 -223 -67 -316 -140 -119
-92 -193 -198 -244 -347 -31 -92 -39 -269 -16 -370 32 -139 99 -261 195 -354
l51 -50 25 24 c14 13 25 27 25 32 0 4 -17 25 -38 46 -146 142 -222 358 -191
541 16 89 20 107 47 166 184 415 712 514 1032 195 86 -85 147 -195 173 -311
14 -63 16 -213 3 -268 -18 -81 -60 -171 -114 -244 l-35 -48 28 -29 28 -30 16
23 c8 12 23 31 33 41 31 34 97 179 114 251 37 155 14 358 -56 490 -95 181
-266 320 -455 371 -51 13 -257 28 -267 19z"/>
<path d="M23069 9774 c0 -11 -2 -28 -3 -39 -2 -11 -6 -54 -10 -95 -4 -41 -9
-88 -11 -105 -2 -16 -7 -64 -11 -105 -3 -41 -8 -84 -10 -95 -2 -11 -6 -51 -9
-90 -3 -38 -8 -86 -10 -105 -9 -68 -25 -215 -25 -231 0 -12 11 -18 36 -21 19
-2 37 -2 39 1 3 7 12 75 20 161 3 30 7 73 10 95 3 22 7 63 9 90 3 28 7 70 10
95 10 87 18 165 21 201 7 84 17 165 22 172 2 4 14 5 26 2 12 -2 54 -7 92 -10
39 -3 84 -7 100 -9 17 -2 62 -7 100 -11 39 -3 84 -8 100 -10 91 -12 152 -18
168 -17 16 1 18 -6 12 -61 -4 -34 -8 -80 -10 -102 -2 -22 -7 -62 -9 -90 -3
-27 -8 -75 -11 -105 -6 -63 -13 -127 -19 -185 -28 -240 -29 -222 12 -230 19
-3 36 -5 37 -3 8 8 16 68 30 223 3 39 8 81 10 95 2 14 7 59 10 100 3 41 8 86
10 100 2 14 7 59 11 100 4 41 8 84 10 95 1 11 3 28 3 38 1 13 7 16 29 13 15
-3 60 -8 99 -11 40 -3 82 -8 93 -10 12 -2 51 -7 88 -10 193 -17 256 -26 264
-38 4 -6 5 -14 3 -17 -1 -3 -6 -36 -9 -75 -7 -76 -11 -105 -26 -235 -5 -47
-12 -116 -15 -155 -4 -38 -8 -81 -10 -95 -4 -25 -15 -148 -18 -205 -2 -28 1
-30 36 -33 25 -2 37 1 38 10 0 7 2 20 3 28 2 8 7 50 11 93 3 43 8 88 10 100 2
12 6 51 9 87 4 36 8 81 10 100 5 37 12 107 21 200 3 30 8 75 10 100 3 25 8 75
11 113 6 65 5 67 -18 68 -12 0 -30 2 -40 4 -9 1 -51 6 -95 9 -43 3 -87 8 -98
10 -11 2 -51 7 -90 10 -38 4 -86 9 -105 11 -19 2 -60 6 -90 9 -133 13 -177 17
-210 22 -19 2 -60 6 -90 9 -30 2 -77 7 -105 11 -59 7 -85 10 -188 19 -43 3
-86 8 -95 10 -10 2 -57 6 -105 10 -80 7 -87 6 -88 -11z"/>
<path d="M15068 3925 c-2 -2 -29 -5 -60 -9 -216 -22 -417 -215 -456 -438 l-7
-37 -135 65 c-350 170 -623 256 -910 289 -84 9 -168 18 -210 21 -66 5 -447 4
-505 -1 -471 -40 -704 -107 -1155 -327 -336 -164 -398 -193 -527 -242 -121
-46 -284 -91 -440 -120 -11 -3 -43 -8 -70 -12 -26 -3 -56 -8 -66 -10 -10 -2
-53 -6 -95 -10 -42 -3 -93 -8 -112 -9 -19 -2 -125 -4 -235 -4 l-200 -1 35 -33
c54 -50 203 -174 330 -274 528 -415 1166 -812 1745 -1083 248 -117 286 -133
565 -247 216 -88 594 -217 870 -296 137 -40 441 -118 510 -131 14 -2 79 -16
145 -30 158 -34 357 -71 443 -82 20 -2 62 -8 92 -14 30 -5 78 -12 105 -15 28
-3 65 -8 83 -11 17 -2 47 -6 65 -8 17 -3 59 -8 92 -11 33 -3 74 -7 90 -10 17
-2 71 -7 120 -10 50 -4 106 -9 125 -11 248 -26 1126 -26 1380 0 19 2 76 7 125
10 50 4 104 9 120 11 31 4 101 12 190 21 72 7 436 61 530 79 352 66 677 143
975 231 170 51 427 134 475 153 11 5 90 35 175 66 161 60 406 160 523 214 37
17 97 45 135 62 206 95 513 256 777 409 138 80 436 272 632 408 220 152 750
571 752 595 1 4 -83 7 -186 8 -203 1 -220 2 -364 19 -90 10 -117 14 -179 26
-14 2 -41 7 -60 10 -56 9 -211 51 -296 80 -160 53 -231 85 -634 282 -102 50
-230 108 -285 130 -96 38 -276 98 -324 107 -12 2 -30 6 -39 9 -9 3 -32 8 -51
11 -19 3 -37 7 -40 9 -3 2 -31 7 -61 11 -30 4 -57 8 -60 10 -3 1 -31 6 -62 9
-32 3 -83 9 -115 12 -31 3 -74 8 -97 9 -57 5 -451 5 -506 0 -83 -6 -185 -16
-210 -20 -168 -27 -209 -34 -232 -41 -10 -3 -30 -8 -45 -10 -52 -9 -200 -53
-279 -83 -131 -49 -218 -88 -464 -208 -129 -64 -274 -133 -322 -154 -136 -60
-346 -126 -501 -158 -134 -27 -171 -33 -292 -47 -27 -4 -180 -8 -339 -10 -159
-3 -294 -7 -299 -11 -6 -3 -7 -1 -4 4 4 7 -10 11 -36 12 -23 1 -51 3 -62 5
-11 3 -34 5 -52 5 l-32 1 23 53 c34 77 48 143 47 222 -1 122 -25 206 -86 299
-69 107 -162 178 -285 220 -62 20 -182 40 -192 31z m1581 -1224 c172 -49 316
-192 361 -361 45 -168 -8 -360 -135 -486 -204 -203 -531 -197 -726 14 -267
288 -117 754 270 841 50 11 177 7 230 -8z m-1219 -1014 c186 -64 243 -296 105
-430 -50 -49 -99 -70 -172 -75 -101 -7 -196 48 -245 141 -31 59 -32 175 -1
232 61 115 198 173 313 132z"/>
</g>
</svg>
